# xmcd CD database file
#
# Track frame offsets:
#	150
#	12252
#	25377
#	37695
#	50245
#	65100
#	84117
#	102702
#	113892
#	126977
#	140292
#	156327
#	167940
#	187765
#
# Disc length: 2683 seconds
#
# Revision: 0
# Processed by: cddbd v1.4PL0 Copyright (c) Steve Scherf et al.
# Submitted via: CDex 1.50beta9
#
DISCID=be0a790e
DTITLE=Pat and Finian's rainbow - Just Lick I Guess
DYEAR=1900
DGENRE=Country
TTITLE0=Angel Judy
TTITLE1=Camden Towm
TTITLE2=Take Me Back Home To Mayo
TTITLE3=Are We Making Love Or Just Making Friends
TTITLE4=Sligo Town
TTITLE5=Sweet Forget Me Nots
TTITLE6=Cottage By The Lee
TTITLE7=Just Lucky I Guess
TTITLE8=Aged Mother
TTITLE9=Big Tom McBride
TTITLE10=Beatiful Wicklow
TTITLE11=Pretty Brown Eyes
TTITLE12=My Wedding Band
TTITLE13=WE Can Mack It Right
EXTD=
EXTT0=
EXTT1=
EXTT2=
EXTT3=
EXTT4=
EXTT5=
EXTT6=
EXTT7=
EXTT8=
EXTT9=
EXTT10=
EXTT11=
EXTT12=
EXTT13=
PLAYORDER=
